<?xml version="1.0" encoding="UTF-8"?>
<svg xmlns="http://www.w3.org/2000/svg" width="20" height="21" viewBox="0 0 20 21" fill="none">
  <rect y="0.117523" width="20" height="20" rx="3" fill="#E4EED3"></rect>
  <path d="M4.70522 7.11731C4.61252 7.20983 4.53897 7.31971 4.48879 7.44069C4.43861 7.56166 4.41278 7.69134 4.41278 7.82231C4.41278 7.95328 4.43861 8.08296 4.48879 8.20394C4.53897 8.32491 4.61252 8.4348 4.70522 8.52731L9.29523 13.1173C9.38774 13.21 9.49763 13.2836 9.6186 13.3337C9.73957 13.3839 9.86926 13.4098 10.0002 13.4098C10.1312 13.4098 10.2609 13.3839 10.3818 13.3337C10.5028 13.2836 10.6127 13.21 10.7052 13.1173L15.2952 8.52731C15.3878 8.43473 15.4612 8.32482 15.5114 8.20385C15.5615 8.08289 15.5872 7.95324 15.5872 7.82231C15.5872 7.69138 15.5615 7.56173 15.5114 7.44077C15.4612 7.3198 15.3878 7.20989 15.2952 7.11731C15.2026 7.02473 15.0927 6.95129 14.9718 6.90119C14.8508 6.85108 14.7212 6.82529 14.5902 6.82529C14.4593 6.82529 14.3296 6.85108 14.2087 6.90119C14.0877 6.95129 13.9778 7.02473 13.8852 7.11731L9.99522 10.9973L6.11522 7.11731C5.72522 6.72731 5.08522 6.73731 4.70522 7.11731Z" fill="#79AB25"></path>
</svg>
