<?xml version="1.0" encoding="UTF-8"?>
<svg xmlns="http://www.w3.org/2000/svg" width="44" height="44" viewBox="0 0 44 44" fill="none">
  <rect width="44" height="44" rx="2.5" fill="#F2F7E9"></rect>
  <path d="M28.25 17C28.25 17.3316 28.1183 17.6495 27.8839 17.8839C27.6494 18.1184 27.3315 18.25 27 18.25C26.6685 18.25 26.3505 18.1184 26.1161 17.8839C25.8817 17.6495 25.75 17.3316 25.75 17C25.75 16.6685 25.8817 16.3506 26.1161 16.1162C26.3505 15.8817 26.6685 15.75 27 15.75C27.3315 15.75 27.6494 15.8817 27.8839 16.1162C28.1183 16.3506 28.25 16.6685 28.25 17ZM25.5 12.05C23.7631 12.0511 22.0977 12.7415 20.8696 13.9697C19.6415 15.1978 18.951 16.8632 18.95 18.6C18.95 18.987 19 19.36 19.06 19.704C19.0688 19.7474 19.067 19.7921 19.0548 19.8346C19.0426 19.8771 19.0204 19.916 18.99 19.948L12.755 26.184C12.2392 26.6996 11.9493 27.3988 11.949 28.128V30.3C11.949 31.266 12.733 32.05 13.699 32.05H16.199C16.6631 32.05 17.1082 31.8657 17.4364 31.5375C17.7646 31.2093 17.949 30.7642 17.949 30.3V29.05H19.7C20.39 29.05 20.95 28.49 20.95 27.8V26.05H22.7C23.0237 26.0503 23.3348 25.9249 23.568 25.7003C23.8011 25.4758 23.9381 25.1695 23.95 24.846C24.446 24.974 24.97 25.05 25.5 25.05C27.2368 25.049 28.9022 24.3586 30.1304 23.1304C31.3585 21.9023 32.0489 20.2369 32.05 18.5C32.05 14.869 29.097 12.05 25.5 12.05ZM20.45 18.6C20.451 17.261 20.9834 15.9772 21.9303 15.0303C22.8771 14.0835 24.161 13.5511 25.5 13.55C28.302 13.55 30.55 15.731 30.55 18.5C30.5489 19.8391 30.0165 21.1229 29.0697 22.0698C28.1229 23.0166 26.839 23.549 25.5 23.55C24.82 23.55 24.12 23.379 23.495 23.11C23.3808 23.061 23.2563 23.0411 23.1325 23.0521C23.0088 23.0631 22.8897 23.1047 22.786 23.1731C22.6823 23.2415 22.5972 23.3346 22.5384 23.4441C22.4795 23.5535 22.4488 23.6758 22.449 23.8V24.55H20.7C20.01 24.55 19.45 25.11 19.45 25.8V27.55H17.7C17.01 27.55 16.45 28.11 16.45 28.8V30.3C16.45 30.3664 16.4236 30.4299 16.3768 30.4768C16.3299 30.5237 16.2663 30.55 16.2 30.55H13.7C13.6337 30.55 13.5701 30.5237 13.5232 30.4768C13.4763 30.4299 13.45 30.3664 13.45 30.3V28.128C13.45 27.797 13.582 27.478 13.816 27.244L20.052 21.009C20.2527 20.8066 20.4017 20.5587 20.4863 20.2865C20.5709 20.0142 20.5886 19.7256 20.538 19.445C20.4843 19.1664 20.4549 18.8837 20.45 18.6Z" fill="#79AB25" stroke="#79AB25" stroke-width="0.3"></path>
</svg>
