<?xml version="1.0" encoding="UTF-8"?>
<svg xmlns="http://www.w3.org/2000/svg" width="12" height="7" viewBox="0 0 12 7" fill="none">
  <path d="M0.769068 0.617315C0.676364 0.709829 0.602817 0.819718 0.552635 0.940691C0.502454 1.06166 0.476624 1.19135 0.476624 1.32232C0.476624 1.45328 0.502454 1.58297 0.552635 1.70394C0.602817 1.82491 0.676364 1.9348 0.769068 2.02732L5.35907 6.61732C5.45158 6.71002 5.56147 6.78357 5.68244 6.83375C5.80342 6.88393 5.9331 6.90976 6.06407 6.90976C6.19504 6.90976 6.32472 6.88393 6.44569 6.83375C6.56667 6.78357 6.67655 6.71002 6.76907 6.61732L11.3591 2.02732C11.4516 1.93473 11.5251 1.82482 11.5752 1.70386C11.6253 1.58289 11.6511 1.45325 11.6511 1.32232C11.6511 1.19138 11.6253 1.06174 11.5752 0.940772C11.5251 0.819808 11.4516 0.709897 11.3591 0.617315C11.2665 0.524734 11.1566 0.451294 11.0356 0.401189C10.9146 0.351084 10.785 0.325294 10.6541 0.325294C10.5231 0.325294 10.3935 0.351084 10.2725 0.401189C10.1516 0.451294 10.0416 0.524734 9.94907 0.617315L6.05907 4.49732L2.17907 0.617315C1.78907 0.227315 1.14907 0.237315 0.769068 0.617315Z" fill="black"></path>
</svg>
