<?xml version="1.0" encoding="UTF-8"?>
<svg xmlns="http://www.w3.org/2000/svg" width="32" height="31" viewBox="0 0 32 31" fill="none">
  <path d="M14.6 30.1C14.2333 29.7333 14.0413 29.2666 14.024 28.7C14.008 28.1333 14.1833 27.6666 14.55 27.3L24.35 17.5H2C1.43333 17.5 0.958 17.308 0.574 16.924C0.191334 16.5413 0 16.0666 0 15.5C0 14.9333 0.191334 14.458 0.574 14.074C0.958 13.6913 1.43333 13.5 2 13.5H24.35L14.55 3.69998C14.1833 3.33331 14.008 2.86664 14.024 2.29998C14.0413 1.73331 14.2333 1.26664 14.6 0.899975C14.9667 0.533308 15.4333 0.349976 16 0.349976C16.5667 0.349976 17.0333 0.533308 17.4 0.899975L30.6 14.1C30.8 14.2666 30.942 14.4746 31.026 14.724C31.1087 14.9746 31.15 15.2333 31.15 15.5C31.15 15.7666 31.1087 16.0166 31.026 16.25C30.942 16.4833 30.8 16.7 30.6 16.9L17.4 30.1C17.0333 30.4666 16.5667 30.65 16 30.65C15.4333 30.65 14.9667 30.4666 14.6 30.1Z" fill="white"></path>
</svg>
