<?xml version="1.0" encoding="UTF-8"?>
<svg xmlns="http://www.w3.org/2000/svg" width="20" height="20" viewBox="0 0 20 20" fill="none">
  <path d="M18.7167 5.00016C18.075 5.29183 17.3833 5.4835 16.6667 5.57516C17.4 5.1335 17.9667 4.4335 18.2333 3.59183C17.5417 4.0085 16.775 4.30016 15.9667 4.46683C15.3083 3.75016 14.3833 3.3335 13.3333 3.3335C11.375 3.3335 9.775 4.9335 9.775 6.9085C9.775 7.19183 9.80833 7.46683 9.86667 7.72516C6.9 7.57516 4.25833 6.15016 2.5 3.99183C2.19167 4.51683 2.01667 5.1335 2.01667 5.7835C2.01667 7.02516 2.64167 8.12516 3.60833 8.75016C3.01667 8.75016 2.46667 8.5835 1.98333 8.3335V8.3585C1.98333 10.0918 3.21667 11.5418 4.85 11.8668C4.32561 12.0103 3.77508 12.0303 3.24167 11.9252C3.46801 12.6356 3.91128 13.2572 4.50918 13.7026C5.10708 14.148 5.82954 14.3949 6.575 14.4085C5.31136 15.4089 3.745 15.9496 2.13333 15.9418C1.85 15.9418 1.56667 15.9252 1.28333 15.8918C2.86667 16.9085 4.75 17.5002 6.76667 17.5002C13.3333 17.5002 16.9417 12.0502 16.9417 7.32516C16.9417 7.16683 16.9417 7.01683 16.9333 6.8585C17.6333 6.3585 18.2333 5.72516 18.7167 5.00016Z" fill="white"></path>
</svg>
