<?xml version="1.0" encoding="UTF-8"?>
<svg xmlns="http://www.w3.org/2000/svg" width="24" height="25" viewBox="0 0 24 25" fill="none">
  <g clip-path="url(#clip0_437_72)">
    <path d="M7.19998 11.3175H6.39998V12.9175H7.19998V11.3175ZM16.8 12.9175H17.6V11.3175H16.8V12.9175ZM13.6 16.1175H12.8V17.7175H13.6V16.1175ZM16.8 17.7175H17.6V16.1175H16.8V17.7175ZM7.19998 6.51752H6.39998V8.11752H7.19998V6.51752ZM10.4 8.11752H11.2V6.51752H10.4V8.11752ZM16.8 0.917523L17.3664 0.351123L17.1312 0.117523H16.8V0.917523ZM21.6 5.71752H22.4V5.38632L22.1664 5.15112L21.6 5.71752ZM7.19998 12.9175H16.8V11.3175H7.19998V12.9175ZM13.6 17.7175H16.8V16.1175H13.6V17.7175ZM7.19998 8.11752H10.4V6.51752H7.19998V8.11752ZM20 22.5175H3.99998V24.1175H20V22.5175ZM3.19998 21.7175V2.51752H1.59998V21.7175H3.19998ZM3.99998 1.71752H16.8V0.117523H3.99998V1.71752ZM20.8 5.71752V21.7175H22.4V5.71752H20.8ZM16.2336 1.48392L21.0336 6.28392L22.1664 5.15112L17.3664 0.351123L16.2336 1.48392ZM3.99998 22.5175C3.7878 22.5175 3.58432 22.4332 3.43429 22.2832C3.28426 22.1332 3.19998 21.9297 3.19998 21.7175H1.59998C1.59998 22.354 1.85283 22.9645 2.30292 23.4146C2.75301 23.8647 3.36346 24.1175 3.99998 24.1175V22.5175ZM20 24.1175C20.6365 24.1175 21.2469 23.8647 21.697 23.4146C22.1471 22.9645 22.4 22.354 22.4 21.7175H20.8C20.8 21.9297 20.7157 22.1332 20.5657 22.2832C20.4156 22.4332 20.2122 22.5175 20 22.5175V24.1175ZM3.19998 2.51752C3.19998 2.30535 3.28426 2.10187 3.43429 1.95184C3.58432 1.80181 3.7878 1.71752 3.99998 1.71752V0.117523C3.36346 0.117523 2.75301 0.37038 2.30292 0.820467C1.85283 1.27055 1.59998 1.881 1.59998 2.51752H3.19998Z" fill="white"></path>
  </g>
  <defs>
    <clipPath id="clip0_437_72">
      <rect width="24" height="24" fill="white" transform="translate(0 0.117523)"></rect>
    </clipPath>
  </defs>
</svg>
